<svg width="72" height="72" viewBox="0 0 72 72" fill="none" xmlns="http://www.w3.org/2000/svg">
<path d="M52.5691 61.3067C50.9159 61.3067 49.5712 59.9609 49.5712 58.3077C49.5712 56.6546 50.9159 55.3098 52.5691 55.3098C54.2225 55.3098 55.5673 56.6543 55.5673 58.3077C55.5673 59.9611 54.2225 61.3067 52.5691 61.3067ZM19.4309 61.3067C17.7778 61.3067 16.433 59.9609 16.433 58.3077C16.433 56.6546 17.7775 55.3098 19.4309 55.3098C21.0841 55.3098 22.4288 56.6543 22.4288 58.3077C22.4288 59.9611 21.0843 61.3067 19.4309 61.3067ZM53.6444 43.2469L59.6363 32.8692C59.8013 32.5828 59.8459 32.2427 59.7603 31.9235C59.6748 31.6042 59.4661 31.332 59.1801 31.1664C58.8936 31.0015 58.5535 30.957 58.2343 31.0425C57.9151 31.1281 57.6428 31.3367 57.4772 31.6227L51.4104 42.1315C46.7706 40.0144 41.5601 38.8348 36 38.8348C30.4399 38.8348 25.2294 40.0144 20.5899 42.1315L14.5228 31.6227C14.3572 31.3367 14.0849 31.1281 13.7657 31.0425C13.4465 30.957 13.1064 31.0015 12.8199 31.1664C12.5337 31.3318 12.3249 31.6041 12.2393 31.9234C12.1538 32.2427 12.1985 32.5829 12.3636 32.8692L18.3556 43.2469C8.06655 48.8429 1.02948 59.2593 0 71.5656H72C70.9697 59.2595 63.9326 48.8432 53.6444 43.2469Z" fill="#3DDB85"/>
</svg>
