<svg width="72" height="72" viewBox="0 0 72 72" fill="none" xmlns="http://www.w3.org/2000/svg">
<g clip-path="url(#clip0_4341_25020)">
<g clip-path="url(#clip1_4341_25020)">
<path d="M63.3045 24.5448C62.8841 24.8688 55.462 29.0232 55.462 38.2608C55.462 48.9456 64.9063 52.7256 65.189 52.8192C65.1455 53.0496 63.6886 57.996 60.2095 63.036C57.1073 67.4712 53.8674 71.8992 48.9386 71.8992C44.0099 71.8992 42.7415 69.0552 37.0517 69.0552C31.5068 69.0552 29.5353 71.9928 25.027 71.9928C20.5186 71.9928 17.3729 67.8888 13.7561 62.8488C9.56665 56.9304 6.18176 47.736 6.18176 39.0096C6.18176 25.0128 15.3434 17.5896 24.3601 17.5896C29.1512 17.5896 33.1449 20.7144 36.1529 20.7144C39.0159 20.7144 43.4808 17.4024 48.9314 17.4024C50.9971 17.4024 58.4192 17.5896 63.3045 24.5448ZM46.3438 11.4768C48.598 8.82 50.1926 5.1336 50.1926 1.4472C50.1926 0.936 50.1491 0.4176 50.0549 0C46.3873 0.1368 42.0239 2.4264 39.3928 5.4576C37.3271 7.7904 35.3991 11.4768 35.3991 15.2136C35.3991 15.7752 35.4933 16.3368 35.5368 16.5168C35.7687 16.56 36.1456 16.6104 36.5225 16.6104C39.8132 16.6104 43.9519 14.4216 46.3438 11.4768Z" fill="white"/>
</g>
</g>
<defs>
<clipPath id="clip0_4341_25020">
<rect width="72" height="72" fill="white"/>
</clipPath>
<clipPath id="clip1_4341_25020">
<rect width="59" height="72" fill="white" transform="translate(6.18176)"/>
</clipPath>
</defs>
</svg>
