<svg width="72" height="72" viewBox="0 0 72 72" fill="none" xmlns="http://www.w3.org/2000/svg">
<path d="M67.1688 17.9999C64.009 12.5276 59.4645 7.98346 53.992 4.82409C48.5195 1.66473 42.3118 0.00146484 35.9928 0.00146484C29.6738 0.00146484 23.4661 1.66473 17.9936 4.82409C12.5211 7.98346 7.97656 12.5276 4.81677 17.9999L6.97677 56.8799L67.1688 17.9999Z" fill="url(#paint0_linear_4341_25381)"/>
<path d="M20.412 45L4.824 18C1.66438 23.4726 0.000955663 29.6805 0.000915528 35.9998C0.000875393 42.319 1.66422 48.5269 4.82377 53.9996C7.98332 59.4723 12.5278 64.0168 18.0003 67.1766C23.4729 70.3363 29.6808 71.9998 36 72L71.28 36L20.412 45Z" fill="url(#paint1_linear_4341_25381)"/>
<path d="M51.588 45L36 72C42.3186 71.9986 48.5256 70.3341 53.9972 67.1739C59.4687 64.0136 64.0121 59.4689 67.1708 53.9965C70.3295 48.524 71.9922 42.3166 71.9919 35.998C71.9915 29.6793 70.3281 23.4721 67.1688 18H36L51.588 45Z" fill="url(#paint2_linear_4341_25381)"/>
<path d="M36 54C38.3638 54 40.7044 53.5344 42.8883 52.6298C45.0722 51.7252 47.0565 50.3994 48.7279 48.7279C50.3994 47.0565 51.7252 45.0722 52.6298 42.8883C53.5344 40.7044 54 38.3638 54 36C54 33.6362 53.5344 31.2956 52.6298 29.1117C51.7252 26.9278 50.3994 24.9435 48.7279 23.2721C47.0565 21.6006 45.0722 20.2748 42.8883 19.3702C40.7044 18.4656 38.3638 18 36 18C31.2261 18 26.6477 19.8964 23.2721 23.2721C19.8964 26.6477 18 31.2261 18 36C18 40.7739 19.8964 45.3523 23.2721 48.7279C26.6477 52.1036 31.2261 54 36 54Z" fill="white"/>
<path d="M36 50.2559C37.8721 50.2559 39.7259 49.8872 41.4556 49.1707C43.1852 48.4543 44.7567 47.4042 46.0805 46.0804C47.4043 44.7566 48.4544 43.185 49.1708 41.4554C49.8873 39.7258 50.256 37.872 50.256 35.9999C50.256 34.1278 49.8873 32.274 49.1708 30.5444C48.4544 28.8147 47.4043 27.2432 46.0805 25.9194C44.7567 24.5956 43.1852 23.5455 41.4556 22.8291C39.7259 22.1126 37.8721 21.7439 36 21.7439C32.2191 21.7439 28.593 23.2459 25.9195 25.9194C23.246 28.5929 21.744 32.219 21.744 35.9999C21.744 39.7808 23.246 43.4069 25.9195 46.0804C28.593 48.7539 32.2191 50.2559 36 50.2559Z" fill="#1A73E8"/>
<defs>
<linearGradient id="paint0_linear_4341_25381" x1="4.82397" y1="22.4999" x2="67.1688" y2="22.4999" gradientUnits="userSpaceOnUse">
<stop stop-color="#D93025"/>
<stop offset="1" stop-color="#EA4335"/>
</linearGradient>
<linearGradient id="paint1_linear_4341_25381" x1="39.8952" y1="69.7464" x2="8.71921" y2="15.7464" gradientUnits="userSpaceOnUse">
<stop stop-color="#1E8E3E"/>
<stop offset="1" stop-color="#34A853"/>
</linearGradient>
<linearGradient id="paint2_linear_4341_25381" x1="30.744" y1="72" x2="61.92" y2="18.0936" gradientUnits="userSpaceOnUse">
<stop stop-color="#FCC934"/>
<stop offset="1" stop-color="#FBBC04"/>
</linearGradient>
</defs>
</svg>
