<svg width="24" height="24" viewBox="0 0 24 24" fill="none" xmlns="http://www.w3.org/2000/svg"><path d="M15.4 3c-.238.435-.45.885-.635 1.346a17.2 17.2 0 0 0-5.486 0c-.185-.461-.397-.91-.635-1.346a18.88 18.88 0 0 0-4.948 1.59A21.545 21.545 0 0 0 .102 18.77a19.733 19.733 0 0 0 6.074 3.169c.498-.672.943-1.384 1.33-2.129-.714-.269-1.4-.609-2.049-1.015.178-.121.346-.256.503-.404 1.891.93 3.963 1.413 6.062 1.413s4.17-.483 6.061-1.413c.168.147.336.281.504.404-.652.403-1.338.747-2.049 1.027.37.762.804 1.49 1.294 2.178a19.546 19.546 0 0 0 6.061-3.169A21.408 21.408 0 0 0 20.3 4.651 18.995 18.995 0 0 0 15.4 3ZM8.045 15.907a2.306 2.306 0 0 1-1.561-.78 2.404 2.404 0 0 1-.596-1.667 2.392 2.392 0 0 1 .592-1.67 2.294 2.294 0 0 1 1.565-.776c.6.04 1.162.319 1.564.776.403.457.615 1.056.592 1.67a2.391 2.391 0 0 1-.592 1.67 2.294 2.294 0 0 1-1.564.777Zm7.954 0a2.306 2.306 0 0 1-1.561-.78 2.404 2.404 0 0 1-.595-1.667 2.391 2.391 0 0 1 .591-1.67A2.294 2.294 0 0 1 16 11.014a2.282 2.282 0 0 1 1.568.773 2.38 2.38 0 0 1 .588 1.673 2.38 2.38 0 0 1-.588 1.674 2.282 2.282 0 0 1-1.568.773Z" fill="#DDD"/></svg>