<svg width="25" height="24" viewBox="0 0 25 24" fill="none" xmlns="http://www.w3.org/2000/svg">
<g clip-path="url(#clip0)">
<path d="M21.5 15V19C21.5 19.5304 21.2893 20.0391 20.9142 20.4142C20.5391 20.7893 20.0304 21 19.5 21L5.5 21C4.96957 21 4.46086 20.7893 4.08579 20.4142C3.71071 20.0391 3.5 19.5304 3.5 19V15" stroke="#ffffff" stroke-width="2" stroke-linecap="round" stroke-linejoin="round"/>
<path d="M8.5 3H5.5C4.96957 3 4.46086 3.21071 4.08579 3.58579C3.71071 3.96086 3.5 4.46957 3.5 5L3.5 15" stroke="#ffffff" stroke-width="2" stroke-linecap="round" stroke-linejoin="round"/>
<path d="M21.0208 9.60671L21.0208 2.53564L13.9497 2.53564" stroke="#ffffff" stroke-width="2" stroke-linecap="round" stroke-linejoin="round"/>
<path d="M21.0208 2.53571L12.5355 11.021" stroke="#ffffff" stroke-width="2" stroke-linecap="round" stroke-linejoin="round"/>
</g>
<defs>
<clipPath id="clip0">
<rect width="24" height="24" fill="white" transform="translate(24.5) rotate(90)"/>
</clipPath>
</defs>
</svg>
