<?xml version="1.0" encoding="utf-8"?>
<!-- Generator: Adobe Illustrator 26.1.0, SVG Export Plug-In . SVG Version: 6.00 Build 0)  -->
<svg version="1.1" id="Слой_1" xmlns="http://www.w3.org/2000/svg" xmlns:xlink="http://www.w3.org/1999/xlink" x="0px" y="0px"
	 viewBox="0 0 135 40" style="enable-background:new 0 0 135 40;" xml:space="preserve">
<style type="text/css">
	.st0{clip-path:url(#SVGID_00000110465491158305668600000012208478023842263443_);}
	.st1{clip-path:url(#SVGID_00000119810866089742560830000017809939626300580743_);fill:#12100B;}
	.st2{clip-path:url(#SVGID_00000138560361181061123620000015695847603443428754_);fill:#AFABAA;}
	.st3{clip-path:url(#SVGID_00000005249905581023968250000003383510640673300136_);}
	.st4{fill:#FFFFFF;}
	.st5{fill:#EA4335;}
	.st6{fill:#FBBC04;}
	.st7{fill:#4285F4;}
	.st8{fill:#34A853;}
</style>
<g>
	<g>
		<g>
			<defs>
				<rect id="SVGID_1_" width="135" height="40"/>
			</defs>
			<clipPath id="SVGID_00000054988349226647611290000002097436048678266797_">
				<use xlink:href="#SVGID_1_"  style="overflow:visible;"/>
			</clipPath>
			<g style="clip-path:url(#SVGID_00000054988349226647611290000002097436048678266797_);">
				<g>
					<defs>
						<rect id="SVGID_00000176759210795563162510000016403479283254661005_" width="135" height="40"/>
					</defs>
					<clipPath id="SVGID_00000110457374880915696970000016971341332175704729_">
						<use xlink:href="#SVGID_00000176759210795563162510000016403479283254661005_"  style="overflow:visible;"/>
					</clipPath>
					<path style="clip-path:url(#SVGID_00000110457374880915696970000016971341332175704729_);fill:#12100B;" d="M130,40H5
						c-2.75,0-5-2.25-5-5V5c0-2.75,2.25-5,5-5h125c2.75,0,5,2.25,5,5v30C135,37.75,132.75,40,130,40"/>
				</g>
				<g>
					<defs>
						<rect id="SVGID_00000029750549276737771070000009627596802831638956_" width="135" height="40"/>
					</defs>
					<clipPath id="SVGID_00000140729866121896405380000014287149410740667315_">
						<use xlink:href="#SVGID_00000029750549276737771070000009627596802831638956_"  style="overflow:visible;"/>
					</clipPath>
					<path style="clip-path:url(#SVGID_00000140729866121896405380000014287149410740667315_);fill:#AFABAA;" d="M130,0.8
						c2.32,0,4.2,1.88,4.2,4.2v30c0,2.32-1.88,4.2-4.2,4.2H5c-2.32,0-4.2-1.88-4.2-4.2V5c0-2.32,1.88-4.2,4.2-4.2
						C5,0.8,130,0.8,130,0.8z M130,0H5C2.25,0,0,2.25,0,5v30c0,2.75,2.25,5,5,5h125c2.75,0,5-2.25,5-5V5C135,2.25,132.75,0,130,0"/>
				</g>
				<g>
					<defs>
						<rect id="SVGID_00000029030862875410005600000009234927485734178992_" width="135" height="40"/>
					</defs>
					<clipPath id="SVGID_00000116204310100244668430000015301500249832897668_">
						<use xlink:href="#SVGID_00000029030862875410005600000009234927485734178992_"  style="overflow:visible;"/>
					</clipPath>
				</g>
			</g>
		</g>
		<g>
			<defs>
				<rect id="SVGID_00000137832030463001238510000015837126846537179071_" width="135" height="40"/>
			</defs>
			<clipPath id="SVGID_00000097491702866026690900000013207599116653830064_">
				<use xlink:href="#SVGID_00000137832030463001238510000015837126846537179071_"  style="overflow:visible;"/>
			</clipPath>
			<g style="clip-path:url(#SVGID_00000097491702866026690900000013207599116653830064_);">
				<path class="st4" d="M43.07,12.85c-0.5-0.28-0.89-0.68-1.17-1.17c-0.28-0.5-0.43-1.05-0.43-1.65c0-0.6,0.14-1.15,0.43-1.65
					c0.28-0.5,0.67-0.89,1.17-1.17s1.05-0.43,1.65-0.43c0.93,0,1.7,0.34,2.31,1.02l-0.67,0.65C46.15,8.19,45.91,8,45.64,7.88
					c-0.26-0.13-0.57-0.19-0.91-0.19c-0.42,0-0.81,0.1-1.16,0.29c-0.35,0.19-0.62,0.47-0.83,0.83c-0.2,0.36-0.3,0.77-0.3,1.23
					c0,0.46,0.1,0.87,0.3,1.23s0.48,0.63,0.83,0.83c0.35,0.19,0.73,0.29,1.16,0.29c0.71,0,1.3-0.29,1.78-0.88l0.69,0.66
					c-0.3,0.35-0.66,0.63-1.09,0.83c-0.42,0.2-0.89,0.3-1.39,0.3C44.11,13.27,43.56,13.13,43.07,12.85z"/>
				<path class="st4" d="M48.27,6.9h0.96v3.02h0.05l2.48-3.02h1.2v0.05l-2.63,3.11l2.77,3.01v0.05h-1.25l-2.57-2.85h-0.05v2.85
					h-0.96V6.9z"/>
				<path class="st4" d="M56.04,6.9h1.09l2.36,6.23h-1.05l-0.57-1.6h-2.54l-0.57,1.6h-1.05L56.04,6.9z M57.55,10.65l-0.7-1.91
					l-0.23-0.71h-0.05l-0.23,0.71l-0.7,1.91H57.55z"/>
				<path class="st4" d="M63.09,10.36c-0.39,0.34-0.87,0.51-1.44,0.51c-0.38,0-0.72-0.08-1.02-0.23s-0.54-0.38-0.72-0.67
					c-0.17-0.29-0.26-0.63-0.26-1.03V6.9h0.97v1.88c0,0.38,0.11,0.67,0.33,0.87c0.22,0.21,0.52,0.31,0.89,0.31
					c0.5,0,0.92-0.2,1.25-0.59V6.9h0.95v6.23h-0.95V10.36z"/>
				<path class="st4" d="M67.23,6.9h1.09l2.36,6.23h-1.05l-0.57-1.6h-2.54l-0.57,1.6H64.9L67.23,6.9z M68.74,10.65l-0.7-1.91
					l-0.23-0.71h-0.05l-0.23,0.71l-0.7,1.91H68.74z"/>
				<path class="st4" d="M72.29,7.81h-1.75V6.9h4.45v0.9h-1.74v5.32h-0.96V7.81z"/>
				<path class="st4" d="M75.98,6.9h0.96v2.22h1.32c0.39,0,0.75,0.08,1.08,0.24s0.59,0.39,0.79,0.7c0.2,0.3,0.3,0.66,0.3,1.07
					s-0.1,0.76-0.3,1.07c-0.2,0.3-0.46,0.54-0.79,0.7s-0.69,0.24-1.08,0.24h-2.28V6.9z M78.33,12.24c0.23,0,0.43-0.05,0.6-0.16
					c0.17-0.1,0.31-0.24,0.4-0.41c0.09-0.17,0.14-0.35,0.14-0.54s-0.05-0.37-0.14-0.54s-0.23-0.31-0.4-0.42s-0.37-0.16-0.6-0.16
					h-1.39v2.24h1.39V12.24z"/>
				<path class="st4" d="M83.51,6.9h0.95v3.45l-0.05,1.2h0.05l2.79-4.65h1.09v6.23h-0.95V9.6l0.05-1.2h-0.05l-2.84,4.73h-1.04V6.9z"
					/>
				<path class="st4" d="M90.21,12.87c-0.39-0.27-0.66-0.66-0.8-1.18l0.88-0.35c0.08,0.32,0.22,0.58,0.44,0.77s0.47,0.28,0.77,0.28
					c0.32,0,0.59-0.1,0.82-0.3s0.34-0.45,0.34-0.74c0-0.19-0.06-0.37-0.17-0.53s-0.26-0.29-0.45-0.38c-0.19-0.09-0.4-0.14-0.63-0.14
					H90.9V9.46h0.46c0.31,0,0.57-0.09,0.78-0.26s0.31-0.4,0.31-0.69c0-0.26-0.1-0.47-0.29-0.64c-0.19-0.17-0.44-0.25-0.73-0.25
					c-0.26,0-0.48,0.08-0.66,0.23c-0.18,0.16-0.3,0.34-0.37,0.56l-0.84-0.35c0.12-0.34,0.34-0.65,0.67-0.91
					c0.32-0.26,0.73-0.4,1.22-0.4c0.38,0,0.71,0.07,1,0.22c0.29,0.15,0.52,0.35,0.69,0.61c0.17,0.26,0.25,0.55,0.25,0.87
					c0,0.6-0.26,1.05-0.79,1.34v0.05c0.3,0.13,0.54,0.33,0.72,0.58c0.19,0.26,0.28,0.57,0.28,0.93c0,0.35-0.09,0.68-0.27,0.97
					S92.9,12.84,92.58,13c-0.32,0.17-0.68,0.25-1.07,0.25C91.03,13.27,90.6,13.14,90.21,12.87z"/>
			</g>
		</g>
	</g>
</g>
<path class="st4" d="M68.14,21.75c-2.35,0-4.27,1.79-4.27,4.25c0,2.45,1.92,4.25,4.27,4.25s4.27-1.8,4.27-4.25
	C72.41,23.54,70.49,21.75,68.14,21.75z M68.14,28.58c-1.29,0-2.4-1.06-2.4-2.58c0-1.53,1.11-2.58,2.4-2.58s2.4,1.05,2.4,2.58
	C70.54,27.52,69.42,28.58,68.14,28.58z M58.82,21.75c-2.35,0-4.27,1.79-4.27,4.25c0,2.45,1.92,4.25,4.27,4.25
	c2.35,0,4.27-1.8,4.27-4.25C63.09,23.54,61.17,21.75,58.82,21.75z M58.82,28.58c-1.29,0-2.4-1.06-2.4-2.58
	c0-1.53,1.11-2.58,2.4-2.58s2.4,1.05,2.4,2.58C61.22,27.52,60.11,28.58,58.82,28.58z M47.74,23.06v1.8h4.32
	c-0.13,1.01-0.47,1.76-0.98,2.27c-0.63,0.63-1.61,1.32-3.33,1.32c-2.66,0-4.74-2.14-4.74-4.8s2.08-4.8,4.74-4.8
	c1.43,0,2.48,0.56,3.25,1.29l1.27-1.27c-1.08-1.03-2.51-1.82-4.53-1.82c-3.64,0-6.7,2.96-6.7,6.61c0,3.64,3.06,6.61,6.7,6.61
	c1.97,0,3.45-0.64,4.61-1.85c1.19-1.19,1.56-2.87,1.56-4.22c0-0.42-0.03-0.81-0.1-1.13h-6.07V23.06z M93.05,24.46
	c-0.35-0.95-1.43-2.71-3.64-2.71c-2.19,0-4.01,1.72-4.01,4.25c0,2.38,1.8,4.25,4.22,4.25c1.95,0,3.08-1.19,3.54-1.88l-1.45-0.97
	c-0.48,0.71-1.14,1.18-2.09,1.18s-1.63-0.43-2.06-1.29l5.69-2.35L93.05,24.46z M87.25,25.88c-0.05-1.64,1.27-2.48,2.22-2.48
	c0.74,0,1.37,0.37,1.58,0.9L87.25,25.88z M82.63,30h1.87V17.5h-1.87V30z M79.57,22.7H79.5c-0.42-0.5-1.22-0.95-2.24-0.95
	c-2.13,0-4.08,1.87-4.08,4.27c0,2.38,1.95,4.24,4.08,4.24c1.01,0,1.82-0.45,2.24-0.97h0.06v0.61c0,1.63-0.87,2.5-2.27,2.5
	c-1.14,0-1.85-0.82-2.14-1.51l-1.63,0.68c0.47,1.13,1.71,2.51,3.77,2.51c2.19,0,4.04-1.29,4.04-4.43v-7.64h-1.77L79.57,22.7
	L79.57,22.7z M77.42,28.58c-1.29,0-2.37-1.08-2.37-2.56c0-1.5,1.08-2.59,2.37-2.59c1.27,0,2.27,1.1,2.27,2.59
	C79.7,27.5,78.7,28.58,77.42,28.58z M101.81,17.5h-4.47V30h1.87v-4.74h2.61c2.07,0,4.1-1.5,4.1-3.88
	C105.91,19,103.87,17.5,101.81,17.5z M101.85,23.52H99.2v-4.29h2.65c1.4,0,2.19,1.16,2.19,2.14
	C104.04,22.35,103.25,23.52,101.85,23.52z M113.39,21.73c-1.35,0-2.75,0.6-3.33,1.91l1.66,0.69c0.35-0.69,1.01-0.92,1.7-0.92
	c0.96,0,1.95,0.58,1.96,1.61v0.13c-0.34-0.19-1.06-0.48-1.95-0.48c-1.79,0-3.6,0.98-3.6,2.81c0,1.67,1.46,2.75,3.1,2.75
	c1.25,0,1.95-0.56,2.38-1.22h0.06v0.96h1.8v-4.79C117.18,22.97,115.52,21.73,113.39,21.73z M113.16,28.58
	c-0.61,0-1.46-0.31-1.46-1.06c0-0.96,1.06-1.33,1.98-1.33c0.82,0,1.21,0.18,1.7,0.42C115.24,27.76,114.24,28.58,113.16,28.58z
	 M123.74,22l-2.14,5.42h-0.06L119.32,22h-2.01l3.33,7.58l-1.9,4.21h1.95L125.82,22H123.74z M106.94,30h1.87V17.5h-1.87V30z"/>
<g>
	<path class="st5" d="M20.72,19.42l-10.65,11.3c0,0,0,0,0,0.01c0.33,1.23,1.45,2.13,2.78,2.13c0.53,0,1.03-0.14,1.46-0.4l0.03-0.02
		l11.98-6.91L20.72,19.42z"/>
	<path class="st6" d="M31.49,17.5l-0.01-0.01l-5.17-3l-5.83,5.19l5.85,5.85l5.15-2.97c0.9-0.49,1.51-1.44,1.51-2.53
		C32.99,18.93,32.38,17.99,31.49,17.5z"/>
	<path class="st7" d="M10.07,9.28c-0.06,0.24-0.1,0.48-0.1,0.74v19.97c0,0.26,0.03,0.5,0.1,0.74l11.01-11.01L10.07,9.28z"/>
	<path class="st8" d="M20.8,20l5.51-5.51L14.34,7.55c-0.43-0.26-0.94-0.41-1.49-0.41c-1.33,0-2.45,0.91-2.78,2.13l0,0L20.8,20z"/>
</g>
</svg>
