<svg width="180" height="32" viewBox="0 0 180 32" fill="none" xmlns="http://www.w3.org/2000/svg">
<path d="M37.7845 31.9975H0V0H37.7845V31.9975ZM102.681 31.9975H106.026V0H102.681V31.9975Z" fill="#76B900"/>
<path d="M102.682 0H37.7852V31.9787H102.682V0Z" fill="#1E1E1E"/>
<path d="M16.7229 21.1378V25.9477H18.0757V21.1378H16.7229ZM6.05078 21.1378V25.9477H7.42237V22.2839H8.47455C8.83154 22.2839 9.07579 22.3779 9.24489 22.547C9.45157 22.7724 9.54552 23.1482 9.54552 23.8246V25.929H10.8795V23.2609C10.8795 21.3633 9.67704 21.1002 8.49334 21.1002H6.05078M18.9212 21.1378V25.9477H21.1195C22.2844 25.9477 22.679 25.7599 23.0923 25.3089C23.3929 25.0083 23.5808 24.3319 23.5808 23.5991C23.5808 22.9227 23.4117 22.3215 23.1487 21.9457C22.6414 21.2693 21.9274 21.1378 20.8376 21.1378H18.9212ZM20.2552 22.19H20.8376C21.6831 22.19 22.228 22.5657 22.228 23.5616C22.228 24.5574 21.6831 24.9331 20.8376 24.9331H20.2552V22.19ZM14.7688 21.1378L13.6415 24.9519L12.5517 21.1378H11.0862L12.6457 25.9477H14.5997L16.1592 21.1378H14.7688ZM24.2009 25.9477H25.5537V21.1378H24.2009V25.9477ZM28.015 21.1378L26.1173 25.9477H27.4513L27.752 25.1022H29.9878L30.2697 25.9477H31.7164L29.8187 21.1378H28.015ZM28.8793 22.0209L29.706 24.2755H28.0338L28.8793 22.0209ZM14.9379 9.88324V8.73711C15.0507 8.73711 15.1634 8.71833 15.2761 8.71833C18.4327 8.62438 20.4994 11.4239 20.4994 11.4239C20.4994 11.4239 18.2636 14.5241 15.8586 14.5241C15.5204 14.5241 15.201 14.4677 14.9191 14.3738V10.879C16.1404 11.0294 16.4035 11.5742 17.1362 12.7955L18.7897 11.4051C18.7897 11.4051 17.5872 9.82687 15.558 9.82687C15.3513 9.84566 15.1446 9.84566 14.9379 9.88324ZM14.9379 6.06909V7.79767C15.0507 7.79767 15.1634 7.77888 15.2761 7.77888C19.6727 7.62857 22.5286 11.3864 22.5286 11.3864C22.5286 11.3864 19.2406 15.3696 15.821 15.3696C15.5016 15.3696 15.2198 15.332 14.9379 15.2944V16.3654C15.1822 16.403 15.4264 16.4218 15.6707 16.4218C18.8648 16.4218 21.1571 14.7871 23.3929 12.8707C23.7687 13.1713 25.2718 13.8853 25.5912 14.2047C23.4681 15.9896 18.5266 17.4176 15.7271 17.4176C15.464 17.4176 15.201 17.3988 14.9379 17.38V18.8831H27.0568V6.10667H14.9379V6.06909ZM14.9379 14.3738V15.2757C11.9881 14.7496 11.1802 11.687 11.1802 11.687C11.1802 11.687 12.5893 10.1275 14.9379 9.86445V10.8603C13.6979 10.7099 12.7396 11.8561 12.7396 11.8561C12.7396 11.8561 13.2657 13.8101 14.9379 14.3738ZM9.69583 11.5742C9.69583 11.5742 11.4432 9.00016 14.9379 8.73711V7.79767C11.0674 8.09829 7.72299 11.3864 7.72299 11.3864C7.72299 11.3864 9.62067 16.8727 14.9379 17.3612V16.3654C11.0298 15.8581 9.69583 11.5742 9.69583 11.5742Z" fill="#1E1E1E"/>
<path d="M47.4432 14.7683C44.794 14.7683 43.46 13.3967 43.46 10.6724V10.2026C43.46 9.33834 43.6103 8.58678 43.9297 7.96675C44.2303 7.34672 44.6812 6.87699 45.2449 6.53879C45.8274 6.20059 46.5038 6.05028 47.3117 6.05028H47.4244C48.2323 6.05028 48.9087 6.21938 49.4724 6.57637C50.0173 6.91457 50.4306 7.42187 50.6749 8.06069L49.0778 8.62436C48.8524 7.92917 48.3075 7.59097 47.4244 7.59097H47.3493C46.6729 7.59097 46.1468 7.81644 45.771 8.24858C45.414 8.69952 45.2261 9.33834 45.2261 10.1838V10.7287C45.2261 11.593 45.414 12.2318 45.771 12.6264C46.128 13.0398 46.6916 13.2276 47.462 13.2276H47.5371C47.8566 13.2276 48.1384 13.2089 48.4202 13.1525C48.7021 13.0961 48.9463 13.0398 49.153 12.9458V11.4051H47.368L47.5747 9.93958H50.844V13.7913C50.4306 14.1107 49.9609 14.355 49.3973 14.5241C48.8336 14.6932 48.2323 14.7683 47.5935 14.7683H47.4432ZM52.3095 14.5992V6.21938H57.871V7.7037H54.0569V9.63896H57.1571L56.9504 11.1233H54.0569V13.1149H57.9462V14.5992H52.3095ZM59.4869 14.5992V6.21938H65.0484V7.7037H61.2343V9.84564H64.3156L64.109 11.33H61.2343V14.5992H59.4869ZM69.6705 14.7683C68.8626 14.7683 68.1674 14.5992 67.5849 14.261C67.0024 13.9228 66.5703 13.4531 66.2509 12.8331C65.9503 12.213 65.7812 11.4803 65.7812 10.6536V10.1838C65.7812 9.33834 65.9315 8.60557 66.2509 7.98554C66.5515 7.3655 67.0024 6.89578 67.5849 6.55758C68.1674 6.21938 68.8626 6.05028 69.6705 6.05028H69.7832C70.5911 6.05028 71.2863 6.21938 71.8688 6.55758C72.4512 6.89578 72.8834 7.3655 73.2028 7.98554C73.5034 8.60557 73.6725 9.33834 73.6725 10.1838V10.6536C73.6725 11.4991 73.5222 12.2318 73.2028 12.8331C72.9022 13.4531 72.4512 13.9228 71.8688 14.261C71.2863 14.5992 70.5911 14.7683 69.7832 14.7683H69.6705ZM69.6893 13.2464H69.7832C70.4408 13.2464 70.9481 13.0398 71.3427 12.6076C71.7373 12.1943 71.9251 11.5554 71.9251 10.6911V10.1463C71.9251 9.30076 71.7373 8.66194 71.3427 8.22979C70.9481 7.81644 70.4408 7.59097 69.7832 7.59097H69.6893C69.0317 7.59097 68.5056 7.79765 68.1298 8.22979C67.7352 8.66194 67.5473 9.28197 67.5473 10.1463V10.6911C67.5473 11.5366 67.7352 12.1755 68.1298 12.6076C68.5056 13.021 69.0317 13.2464 69.6893 13.2464ZM74.9877 14.5992V6.21938H78.1631C79.1401 6.21938 79.9104 6.44485 80.4741 6.89578C81.0378 7.34672 81.3384 7.98554 81.3384 8.79346V9.01893C81.3384 9.58259 81.2069 10.0711 80.925 10.4469C80.6432 10.8415 80.2674 11.1421 79.7789 11.33L81.6014 14.5804H79.7037L78.0503 11.593H76.7539V14.5804H74.9877V14.5992ZM76.7351 10.1087H78.1067C78.52 10.1087 78.877 10.0335 79.1589 9.86443C79.4407 9.71412 79.5722 9.43228 79.5722 9.05651V8.75588C79.5722 8.3989 79.4407 8.13585 79.1589 7.96675C78.877 7.79765 78.52 7.72249 78.1067 7.72249H76.7351V10.1087ZM86.2799 14.7683C85.0398 14.7683 84.0816 14.4113 83.4427 13.6786C82.8039 12.9458 82.4657 11.9312 82.4657 10.6348V10.1651C82.4657 9.31955 82.616 8.58678 82.9166 7.96675C83.2173 7.34672 83.6494 6.87699 84.2131 6.53879C84.7767 6.20059 85.4719 6.03149 86.2799 6.03149H86.3738C87.2193 6.03149 87.9333 6.21938 88.4969 6.59516C89.0606 6.97094 89.4552 7.49703 89.6994 8.19222L88.0648 8.77467C87.9521 8.36132 87.7454 8.06069 87.4448 7.87281C87.1441 7.68492 86.7872 7.59097 86.355 7.59097H86.2799C85.6222 7.59097 85.1149 7.79765 84.758 8.22979C84.3822 8.66194 84.2131 9.28197 84.2131 10.1463V10.6911C84.2131 11.5742 84.3822 12.2318 84.7392 12.6264C85.0962 13.0398 85.6035 13.2464 86.2799 13.2464H86.355C86.7872 13.2464 87.1629 13.1525 87.4636 12.9646C87.783 12.7767 87.9896 12.4761 88.1212 12.0627L89.7182 12.6828C89.474 13.3404 89.0794 13.8665 88.4969 14.2235C87.9145 14.5992 87.2005 14.7683 86.355 14.7683H86.2799ZM90.9959 14.5992V6.21938H96.5574V7.7037H92.7432V9.63896H95.8434L95.6367 11.1233H92.7432V13.1149H96.6325V14.5992H90.9959ZM43.8357 25.9477V17.5679H45.3952L49.1906 23.0354V17.5679H50.844V25.9477H49.2845L45.4892 20.4802V25.9477H43.8357ZM56.2176 26.1168C55.4097 26.1168 54.7145 25.9477 54.1321 25.6095C53.5496 25.2713 53.1175 24.8016 52.798 24.1816C52.4974 23.5615 52.3283 22.8288 52.3283 21.9833V21.5135C52.3283 20.668 52.4786 19.9353 52.798 19.3152C53.0987 18.6952 53.5496 18.2255 54.1321 17.8873C54.7145 17.5491 55.4097 17.38 56.2176 17.38H56.3304C57.1383 17.38 57.8335 17.5491 58.4159 17.8873C58.9984 18.2255 59.4305 18.6952 59.7499 19.3152C60.0506 19.9353 60.2197 20.668 60.2197 21.5135V21.9833C60.2197 22.8288 60.0693 23.5615 59.7499 24.1816C59.4493 24.8016 58.9984 25.2713 58.4159 25.6095C57.8335 25.9477 57.1383 26.1168 56.3304 26.1168H56.2176ZM56.2176 24.5761H56.3116C56.9692 24.5761 57.4765 24.3695 57.871 23.9373C58.2656 23.524 58.4535 22.8851 58.4535 22.0208V21.476C58.4535 20.6305 58.2656 19.9916 57.871 19.5595C57.4765 19.1274 56.9692 18.9207 56.3116 18.9207H56.2176C55.56 18.9207 55.0339 19.1274 54.6581 19.5595C54.2636 19.9916 54.0757 20.6117 54.0757 21.476V22.0208C54.0757 22.8663 54.2636 23.5052 54.6581 23.9373C55.0527 24.3695 55.5788 24.5761 56.2176 24.5761ZM60.7645 17.5679H62.6622L64.2029 23.4112L65.7248 17.5679H67.3219L68.8438 23.4112L70.3844 17.5679H72.1882L69.6141 25.9477H67.9795L66.4764 20.3298L64.9732 25.9477H63.3386L60.7645 17.5679Z" fill="white"/>
<path d="M113.504 12.645V6.33197H115.89C116.379 6.33197 116.792 6.40713 117.149 6.57623C117.506 6.74533 117.788 6.97079 117.976 7.27142C118.164 7.57204 118.276 7.94782 118.276 8.36117V8.53027C118.276 9.18788 118.051 9.69518 117.619 10.0522C117.187 10.4092 116.604 10.5971 115.871 10.5971H114.8V12.6263H113.504V12.645ZM114.819 9.46972H115.853C116.172 9.46972 116.435 9.39456 116.642 9.26304C116.848 9.13152 116.961 8.88726 116.961 8.58664V8.36117C116.961 8.06055 116.848 7.83508 116.642 7.68477C116.435 7.53446 116.172 7.47809 115.853 7.47809H114.819V9.46972ZM121.978 12.7766C121.358 12.7766 120.832 12.645 120.399 12.4008C119.967 12.1565 119.629 11.7995 119.404 11.3298C119.178 10.8601 119.065 10.3152 119.065 9.67639V9.31941C119.065 8.68058 119.178 8.13571 119.404 7.66598C119.629 7.19626 119.967 6.83927 120.399 6.59502C120.832 6.35076 121.358 6.21924 121.978 6.21924H122.072C122.692 6.21924 123.218 6.35076 123.65 6.59502C124.082 6.83927 124.42 7.19626 124.646 7.66598C124.871 8.13571 124.984 8.68058 124.984 9.31941V9.67639C124.984 10.3152 124.871 10.8601 124.646 11.3298C124.42 11.7995 124.082 12.1565 123.65 12.4008C123.218 12.645 122.692 12.7766 122.072 12.7766H121.978ZM121.996 11.6117H122.072C122.56 11.6117 122.955 11.4613 123.255 11.1419C123.556 10.8225 123.687 10.334 123.687 9.69518V9.28183C123.687 8.64301 123.537 8.15449 123.255 7.83508C122.955 7.51567 122.579 7.36536 122.072 7.36536H121.996C121.508 7.36536 121.113 7.51567 120.813 7.83508C120.512 8.15449 120.381 8.64301 120.381 9.28183V9.69518C120.381 10.334 120.531 10.8225 120.813 11.1419C121.113 11.4613 121.508 11.6117 121.996 11.6117ZM125.341 6.33197H126.769L127.934 10.7474L129.08 6.33197H130.282L131.429 10.7474L132.593 6.33197H133.946L132.011 12.645H130.771L129.644 8.39875L128.516 12.645H127.276L125.341 6.33197ZM134.773 12.645V6.33197H138.963V7.45931H136.088V8.90605H138.418L138.268 10.0334H136.088V11.5365H139.019V12.6638H134.773V12.645ZM140.109 12.645V6.33197H142.495C143.228 6.33197 143.81 6.50107 144.243 6.83927C144.675 7.17747 144.881 7.66598 144.881 8.26723V8.43633C144.881 8.86847 144.769 9.22546 144.562 9.52608C144.355 9.82671 144.073 10.0522 143.698 10.2025L145.069 12.6638H143.641L142.401 10.4092H141.424V12.6638H140.109V12.645ZM141.424 9.24425H142.458C142.777 9.24425 143.04 9.18788 143.247 9.05636C143.453 8.92484 143.566 8.73695 143.566 8.45512V8.22965C143.566 7.96661 143.453 7.75993 143.247 7.64719C143.04 7.51567 142.777 7.45931 142.458 7.45931H141.424V9.24425ZM145.915 12.645V6.33197H150.105V7.45931H147.249V8.90605H149.579L149.428 10.0334H147.249V11.5365H150.18V12.6638H145.915V12.645ZM151.251 12.645V6.33197H153.769C154.407 6.33197 154.933 6.46349 155.384 6.70775C155.816 6.95201 156.155 7.30899 156.38 7.74114C156.606 8.17328 156.718 8.71816 156.718 9.31941V9.67639C156.718 10.5971 156.474 11.3298 155.967 11.8559C155.46 12.382 154.727 12.645 153.787 12.645H151.251ZM152.566 11.4989H153.731C154.257 11.4989 154.67 11.3486 154.971 11.048C155.253 10.7474 155.403 10.2964 155.403 9.67639V9.26304C155.403 8.66179 155.253 8.21086 154.971 7.91024C154.689 7.60962 154.276 7.45931 153.731 7.45931H152.566V11.4989ZM160.194 12.645V6.33197H162.768C163.464 6.33197 164.008 6.48228 164.403 6.80169C164.798 7.12111 165.004 7.53446 165.004 8.07934V8.22965C165.004 8.47391 164.948 8.68058 164.816 8.86847C164.685 9.05636 164.516 9.20667 164.29 9.3382C164.61 9.46972 164.835 9.63882 165.004 9.86428C165.173 10.0898 165.249 10.3716 165.249 10.691V10.8413C165.249 11.405 165.061 11.8371 164.666 12.1565C164.272 12.4759 163.727 12.6263 163.013 12.6263H160.194V12.645ZM161.51 8.90605H162.731C163.37 8.90605 163.689 8.68058 163.689 8.24844V8.09813C163.689 7.89145 163.614 7.74114 163.445 7.62841C163.276 7.51567 163.05 7.45931 162.731 7.45931H161.51V8.90605ZM161.51 11.5177H162.994C163.633 11.5177 163.952 11.2922 163.952 10.8413V10.6722C163.952 10.4467 163.877 10.2964 163.708 10.1649C163.539 10.0522 163.313 9.97702 162.994 9.97702H161.51V11.5177ZM167.503 12.645V10.1649L165.342 6.33197H166.846L168.198 8.92484L169.551 6.33197H170.998L168.837 10.1649V12.645H167.503Z" fill="white"/>
<path d="M157 28.8222L154.557 24.3504H153.637V28.8222H150.987V17.5676H155.271C155.797 17.5676 156.323 17.624 156.849 17.7367C157.338 17.8307 157.808 18.0373 158.24 18.3004C158.653 18.5634 158.973 18.9204 159.217 19.3526C159.461 19.7847 159.593 20.3296 159.574 20.9684C159.574 21.7388 159.367 22.3776 158.954 22.8849C158.54 23.411 157.977 23.768 157.244 23.9934L160.175 28.8034H157V28.8222ZM156.887 21.006C156.887 20.7429 156.831 20.5363 156.718 20.3672C156.605 20.1981 156.455 20.0665 156.286 19.9914C156.098 19.8974 155.91 19.8411 155.703 19.8035C155.497 19.7659 155.29 19.7659 155.083 19.7471H153.637V22.3776H154.933C155.158 22.3776 155.384 22.3588 155.628 22.3212C155.854 22.2836 156.06 22.2273 156.267 22.1145C156.455 22.0206 156.624 21.8703 156.737 21.7012C156.831 21.5321 156.887 21.3066 156.887 21.006ZM170.678 26.4172C170.453 26.9621 170.133 27.4506 169.701 27.8451C169.25 28.2585 168.743 28.5779 168.16 28.7658C167.522 28.9913 166.845 29.104 166.169 29.104C165.417 29.104 164.76 28.9913 164.158 28.7658C163.595 28.5591 163.087 28.2397 162.655 27.8451C162.242 27.4506 161.922 26.9621 161.697 26.4172C161.472 25.8347 161.359 25.1959 161.359 24.5571V17.5488H164.064V24.3316C164.064 24.6322 164.102 24.9141 164.177 25.2147C164.252 25.4777 164.384 25.7408 164.534 25.9475C164.703 26.1729 164.929 26.342 165.192 26.4548C165.455 26.5863 165.793 26.6427 166.169 26.6427C166.545 26.6427 166.883 26.5863 167.146 26.4548C167.409 26.342 167.634 26.1541 167.803 25.9475C167.972 25.722 168.104 25.4777 168.16 25.2147C168.236 24.9329 168.273 24.6322 168.273 24.3316V17.5488H170.997V24.5759C171.016 25.2147 170.904 25.8347 170.678 26.4172Z" fill="white"/>
<path d="M149.616 27.3381C149.616 27.7702 149.466 28.146 149.166 28.4278C148.865 28.7284 148.489 28.86 148.057 28.86C147.832 28.86 147.625 28.8224 147.437 28.7472C147.249 28.6721 147.08 28.5593 146.93 28.4278C146.779 28.2963 146.667 28.1272 146.591 27.9581C146.498 27.7702 146.46 27.5823 146.46 27.3568C146.46 27.1502 146.498 26.9435 146.591 26.7556C146.685 26.5677 146.798 26.3986 146.93 26.2671C147.08 26.1356 147.249 26.0228 147.437 25.9289C147.625 25.8537 147.832 25.7974 148.057 25.7974C148.489 25.7974 148.846 25.9477 149.166 26.2295C149.466 26.5489 149.616 26.9059 149.616 27.3381Z" fill="#76B900"/>
<path d="M121.94 28.7469C121.17 28.9348 120.362 29.01 119.573 29.01C118.746 29.01 117.901 28.8784 117.13 28.5966C116.416 28.3336 115.759 27.939 115.214 27.4129C114.669 26.8868 114.237 26.2668 113.955 25.5716C113.654 24.8576 113.504 24.0685 113.504 23.1854C113.504 22.3023 113.654 21.4944 113.974 20.7804C114.255 20.0852 114.706 19.4652 115.251 18.9391C115.796 18.4318 116.454 18.0372 117.168 17.7742C117.919 17.4924 118.727 17.3608 119.535 17.3608C120.362 17.3608 121.189 17.4924 121.978 17.7554C122.729 18.0184 123.349 18.3754 123.8 18.8264L122.109 20.7428C121.827 20.4234 121.47 20.1604 121.076 19.9913C120.625 19.7846 120.118 19.6907 119.629 19.7095C119.178 19.7095 118.746 19.7846 118.333 19.9725C117.938 20.1416 117.6 20.3859 117.299 20.6865C116.999 21.0059 116.773 21.3817 116.623 21.7762C116.454 22.2272 116.379 22.6969 116.379 23.1666C116.379 23.6363 116.454 24.1248 116.604 24.5758C116.736 24.9891 116.961 25.3649 117.262 25.6843C117.562 26.0037 117.919 26.248 118.333 26.3983C118.802 26.5862 119.291 26.6613 119.779 26.6613C120.08 26.6613 120.381 26.6426 120.662 26.5862C120.926 26.5486 121.189 26.4735 121.452 26.3607V24.3315H119.347V22.1708H123.913V28.0329C123.237 28.3711 122.598 28.5966 121.94 28.7469Z" fill="white"/>
<path d="M128.76 19.9351V22.2273H133.043V24.4256H128.76V28.7283H126.11V17.6616H133.4V19.9351H128.76Z" fill="white"/>
<path d="M142.176 28.7283L137.704 21.4946H137.666L137.723 28.7283H135.13V17.6616H138.174L142.627 24.8766H142.664L142.608 17.6616H145.201V28.7283H142.176Z" fill="white"/>
</svg>
