<svg width="72" height="72" viewBox="0 0 72 72" fill="none" xmlns="http://www.w3.org/2000/svg">
<path d="M39.5846 24.0308V23.4445L37.7624 23.5696C37.2464 23.6022 36.8589 23.7119 36.5984 23.897C36.3378 24.0839 36.2075 24.3428 36.2075 24.6736C36.2075 24.9959 36.3361 25.253 36.5949 25.4433C36.8521 25.6353 37.1984 25.7296 37.6304 25.7296C37.9064 25.7296 38.1652 25.6868 38.4035 25.6028C38.6418 25.5188 38.8509 25.4005 39.0258 25.2496C39.2006 25.1005 39.3378 24.9222 39.4355 24.7148C39.5349 24.5073 39.5846 24.2793 39.5846 24.0308ZM36.0001 0.428467C16.1504 0.428467 0.42865 16.1502 0.42865 35.9999C0.42865 55.8513 16.1504 71.5713 36.0001 71.5713C55.8498 71.5713 71.5715 55.8513 71.5715 35.9999C71.5715 16.1502 55.8515 0.428467 36.0001 0.428467ZM42.9052 21.5125C43.0732 21.041 43.3098 20.6365 43.6166 20.3005C43.9235 19.9645 44.2921 19.7056 44.7241 19.5239C45.1561 19.3422 45.6378 19.2513 46.1675 19.2513C46.6458 19.2513 47.0778 19.3233 47.4618 19.4656C47.8475 19.6079 48.1766 19.7999 48.4526 20.0416C48.7286 20.2833 48.9481 20.5645 49.1092 20.8868C49.2704 21.209 49.3664 21.5502 49.3989 21.9085H47.9709C47.9349 21.7113 47.8698 21.5262 47.7772 21.3565C47.6847 21.1868 47.5629 21.0393 47.4121 20.9142C47.2595 20.789 47.0812 20.6913 46.8772 20.621C46.6715 20.549 46.4418 20.5148 46.1829 20.5148C45.8795 20.5148 45.6035 20.5765 45.3584 20.6982C45.1115 20.8199 44.9006 20.993 44.7258 21.2159C44.5509 21.4388 44.4155 21.7113 44.3195 22.0302C44.2218 22.3508 44.1738 22.7056 44.1738 23.0965C44.1738 23.501 44.2218 23.8645 44.3195 24.1833C44.4155 24.5039 44.5526 24.773 44.7309 24.9942C44.9075 25.2153 45.1218 25.385 45.3704 25.5016C45.6189 25.6182 45.8932 25.6782 46.1915 25.6782C46.6801 25.6782 47.0778 25.5633 47.3864 25.3336C47.6949 25.1039 47.8938 24.7679 47.9864 24.3256H49.4161C49.3749 24.7165 49.2669 25.073 49.0921 25.3953C48.9172 25.7176 48.6909 25.9919 48.4132 26.2199C48.1338 26.4479 47.8064 26.6245 47.4292 26.7479C47.0521 26.8713 46.6372 26.9348 46.1864 26.9348C45.6515 26.9348 45.1698 26.8456 44.7361 26.669C44.3041 26.4925 43.9321 26.237 43.6235 25.9062C43.3149 25.5753 43.0766 25.1725 42.9086 24.6976C42.7407 24.2227 42.6566 23.6896 42.6566 23.0948C42.6532 22.5136 42.7372 21.9856 42.9052 21.5125ZM22.5858 19.349H24.0155V20.6193H24.0429C24.1304 20.4085 24.2452 20.2182 24.3858 20.0536C24.5264 19.8873 24.6875 19.7468 24.8726 19.6285C25.0561 19.5102 25.2601 19.421 25.4795 19.3593C25.7006 19.2976 25.9338 19.2668 26.1772 19.2668C26.7018 19.2668 27.1458 19.3919 27.5058 19.6422C27.8675 19.8925 28.1246 20.2525 28.2755 20.7222H28.3115C28.4075 20.4959 28.5344 20.2936 28.6904 20.1153C28.8464 19.937 29.0264 19.7828 29.2286 19.6559C29.4309 19.529 29.6538 19.433 29.8955 19.3662C30.1372 19.2993 30.3909 19.2668 30.6584 19.2668C31.0269 19.2668 31.3612 19.325 31.6629 19.4433C31.9646 19.5616 32.2218 19.7262 32.4361 19.9405C32.6504 20.1548 32.8149 20.4153 32.9298 20.7205C33.0446 21.0256 33.1029 21.365 33.1029 21.7388V26.849H31.6115V22.097C31.6115 21.605 31.4846 21.2227 31.2309 20.9536C30.9789 20.6845 30.6172 20.549 30.1475 20.549C29.9178 20.549 29.7069 20.5902 29.5149 20.6708C29.3246 20.7513 29.1584 20.8645 29.0212 21.0102C28.8824 21.1542 28.7744 21.329 28.6972 21.5313C28.6184 21.7336 28.5789 21.9548 28.5789 22.1947V26.849H27.1081V21.9736C27.1081 21.7576 27.0738 21.5622 27.0069 21.3873C26.9401 21.2125 26.8458 21.0633 26.7206 20.9382C26.5972 20.813 26.4446 20.7188 26.2681 20.6519C26.0898 20.585 25.8909 20.5508 25.6698 20.5508C25.4401 20.5508 25.2275 20.5936 25.0304 20.6793C24.8349 20.765 24.6669 20.8833 24.5264 21.0342C24.3858 21.1868 24.2761 21.365 24.1989 21.5725C24.1235 21.7782 24.0001 22.0045 24.0001 22.2479V26.8473H22.5858V19.349ZM25.8309 55.2445C19.2738 55.2445 15.1612 50.6879 15.1612 43.4159C15.1612 36.1439 19.2738 31.5719 25.8309 31.5719C32.3881 31.5719 36.4852 36.1439 36.4852 43.4159C36.4852 50.6862 32.3881 55.2445 25.8309 55.2445ZM37.9715 26.8302C37.7298 26.8919 37.4829 26.9228 37.2292 26.9228C36.8555 26.9228 36.5144 26.8696 36.2041 26.7633C35.8921 26.657 35.6264 26.5079 35.4035 26.3142C35.1806 26.1205 35.0058 25.8873 34.8824 25.613C34.7572 25.3388 34.6955 25.0336 34.6955 24.6976C34.6955 24.0393 34.9406 23.525 35.4309 23.1548C35.9212 22.7845 36.6309 22.5685 37.5618 22.5085L39.5846 22.3919V21.8125C39.5846 21.3805 39.4475 21.0496 39.1732 20.825C38.8989 20.6005 38.5115 20.4873 38.0092 20.4873C37.8069 20.4873 37.6166 20.513 37.4418 20.5628C37.2669 20.6142 37.1126 20.6862 36.9789 20.7805C36.8452 20.8748 36.7338 20.9879 36.6481 21.1199C36.5606 21.2502 36.5006 21.3976 36.4681 21.5588H35.0658C35.0744 21.2279 35.1566 20.921 35.3109 20.6399C35.4652 20.3588 35.6744 20.1153 35.9401 19.9079C36.2058 19.7005 36.5161 19.5393 36.8761 19.4245C37.2361 19.3096 37.6269 19.2513 38.0504 19.2513C38.5064 19.2513 38.9195 19.3079 39.2898 19.4245C39.6601 19.541 39.9772 19.7039 40.2395 19.9182C40.5018 20.1325 40.7041 20.3896 40.8464 20.6913C40.9886 20.993 41.0606 21.3308 41.0606 21.7028V26.8473H39.6326V25.5976H39.5966C39.4904 25.7999 39.3566 25.9833 39.1938 26.1462C39.0292 26.309 38.8458 26.4496 38.6418 26.5645C38.4361 26.6793 38.2132 26.7685 37.9715 26.8302ZM47.4052 55.2445C42.4046 55.2445 39.0052 52.625 38.7686 48.5125H42.0241C42.2778 50.8628 44.5492 52.4193 47.6606 52.4193C50.6452 52.4193 52.7898 50.8628 52.7898 48.7353C52.7898 46.8942 51.4869 45.7816 48.4715 45.0205L45.5332 44.2902C41.3092 43.2428 39.3892 41.321 39.3892 38.1616C39.3892 34.2719 42.7869 31.5719 47.6298 31.5719C52.3612 31.5719 55.6629 34.2873 55.7898 38.1925H52.5669C52.3441 35.8422 50.4241 34.397 47.5646 34.397C44.7224 34.397 42.7544 35.8576 42.7544 37.9696C42.7544 39.6359 43.9921 40.6216 47.0092 41.3827L49.4864 42.0016C54.2024 43.145 56.1395 45.0033 56.1395 48.3376C56.1378 52.5925 52.7726 55.2445 47.4052 55.2445ZM25.8309 34.4913C21.3378 34.4913 18.5281 37.937 18.5281 43.4142C18.5281 48.8759 21.3378 52.3216 25.8309 52.3216C30.3086 52.3216 33.1338 48.8759 33.1338 43.4142C33.1355 37.937 30.3086 34.4913 25.8309 34.4913Z" fill="white"/>
</svg>
