<svg width="160" height="112" viewBox="0 0 160 112" fill="none" xmlns="http://www.w3.org/2000/svg">
<path fill-rule="evenodd" clip-rule="evenodd" d="M23 80.1519V104.081H137V80.1519H23ZM22.7726 77.1519H137.227C138.759 77.1519 140 78.3931 140 79.9245V104.308C140 105.839 138.759 107.081 137.227 107.081H22.7726C21.2413 107.081 20 105.839 20 104.308V79.9245C20 78.3931 21.2413 77.1519 22.7726 77.1519Z" fill="#76B900"/>
<path d="M30.9838 87.1753C32.1028 87.1753 33.0099 86.268 33.0099 85.1492C33.0099 84.0303 32.1028 83.123 30.9838 83.123C29.8649 83.123 28.9578 84.0303 28.9578 85.1492C28.9578 86.268 29.8649 87.1753 30.9838 87.1753Z" fill="#76B900"/>
<path d="M37.9503 87.1753C39.0692 87.1753 39.9763 86.268 39.9763 85.1492C39.9763 84.0303 39.0692 83.123 37.9503 83.123C36.8313 83.123 35.9242 84.0303 35.9242 85.1492C35.9242 86.268 36.8313 87.1753 37.9503 87.1753Z" fill="#76B900"/>
<path d="M44.9167 87.1753C46.0356 87.1753 46.9427 86.268 46.9427 85.1492C46.9427 84.0303 46.0356 83.123 44.9167 83.123C43.7977 83.123 42.8906 84.0303 42.8906 85.1492C42.8906 86.268 43.7977 87.1753 44.9167 87.1753Z" fill="#76B900"/>
<path fill-rule="evenodd" clip-rule="evenodd" d="M56.4412 104.588V79.8823H59.4412V104.588H56.4412Z" fill="#76B900"/>
<path fill-rule="evenodd" clip-rule="evenodd" d="M109.573 81.1333H113.625V103.1H109.573V81.1333Z" fill="#76B900"/>
<path fill-rule="evenodd" clip-rule="evenodd" d="M115.047 81.1333H119.099V103.1H115.047V81.1333Z" fill="#76B900"/>
<path fill-rule="evenodd" clip-rule="evenodd" d="M120.52 81.1333H124.573V103.1H120.52V81.1333Z" fill="#76B900"/>
<path fill-rule="evenodd" clip-rule="evenodd" d="M125.995 81.1333H130.048V103.1H125.995V81.1333Z" fill="#76B900"/>
<path fill-rule="evenodd" clip-rule="evenodd" d="M131.469 81.1333H135.521V103.1H131.469V81.1333Z" fill="#76B900"/>
<path fill-rule="evenodd" clip-rule="evenodd" d="M23 43.3267V67.2557H137V43.3267H23ZM22.7726 40.3267H137.227C138.759 40.3267 140 41.568 140 43.0993V67.4831C140 69.0144 138.759 70.2557 137.227 70.2557H22.7726C21.2413 70.2557 20 69.0144 20 67.4831V43.0993C20 41.568 21.2413 40.3267 22.7726 40.3267Z" fill="#76B900"/>
<path d="M30.9838 50.3511C32.1028 50.3511 33.0099 49.4438 33.0099 48.325C33.0099 47.2061 32.1028 46.2988 30.9838 46.2988C29.8649 46.2988 28.9578 47.2061 28.9578 48.325C28.9578 49.4438 29.8649 50.3511 30.9838 50.3511Z" fill="#76B900"/>
<path fill-rule="evenodd" clip-rule="evenodd" d="M28.4578 48.325C28.4578 46.93 29.5887 45.7988 30.9838 45.7988C32.379 45.7988 33.5099 46.93 33.5099 48.325C33.5099 49.7199 32.379 50.8511 30.9838 50.8511C29.5887 50.8511 28.4578 49.7199 28.4578 48.325ZM30.9838 46.7988C30.1411 46.7988 29.4578 47.4822 29.4578 48.325C29.4578 49.1677 30.1411 49.8511 30.9838 49.8511C31.8266 49.8511 32.5099 49.1677 32.5099 48.325C32.5099 47.4822 31.8266 46.7988 30.9838 46.7988Z" fill="#76B900"/>
<path d="M37.9503 50.3511C39.0692 50.3511 39.9763 49.4438 39.9763 48.325C39.9763 47.2061 39.0692 46.2988 37.9503 46.2988C36.8313 46.2988 35.9242 47.2061 35.9242 48.325C35.9242 49.4438 36.8313 50.3511 37.9503 50.3511Z" fill="#76B900"/>
<path fill-rule="evenodd" clip-rule="evenodd" d="M35.4242 48.325C35.4242 46.93 36.5551 45.7988 37.9503 45.7988C39.3454 45.7988 40.4763 46.93 40.4763 48.325C40.4763 49.7199 39.3454 50.8511 37.9503 50.8511C36.5551 50.8511 35.4242 49.7199 35.4242 48.325ZM37.9503 46.7988C37.1075 46.7988 36.4242 47.4822 36.4242 48.325C36.4242 49.1677 37.1075 49.8511 37.9503 49.8511C38.793 49.8511 39.4763 49.1677 39.4763 48.325C39.4763 47.4822 38.793 46.7988 37.9503 46.7988Z" fill="#76B900"/>
<path d="M44.9167 50.3511C46.0356 50.3511 46.9427 49.4438 46.9427 48.325C46.9427 47.2061 46.0356 46.2988 44.9167 46.2988C43.7977 46.2988 42.8906 47.2061 42.8906 48.325C42.8906 49.4438 43.7977 50.3511 44.9167 50.3511Z" fill="#76B900"/>
<path fill-rule="evenodd" clip-rule="evenodd" d="M42.3906 48.325C42.3906 46.93 43.5215 45.7988 44.9167 45.7988C46.3118 45.7988 47.4427 46.93 47.4427 48.325C47.4427 49.7199 46.3118 50.8511 44.9167 50.8511C43.5215 50.8511 42.3906 49.7199 42.3906 48.325ZM44.9167 46.7988C44.0739 46.7988 43.3906 47.4822 43.3906 48.325C43.3906 49.1677 44.0739 49.8511 44.9167 49.8511C45.7594 49.8511 46.4427 49.1677 46.4427 48.325C46.4427 47.4822 45.7594 46.7988 44.9167 46.7988Z" fill="#76B900"/>
<path fill-rule="evenodd" clip-rule="evenodd" d="M56.4412 67.5292L56.4412 41.0586L59.4412 41.0586L59.4412 67.5292L56.4412 67.5292Z" fill="#76B900"/>
<path fill-rule="evenodd" clip-rule="evenodd" d="M109.573 44.3081H113.625V66.2751H109.573V44.3081Z" fill="#76B900"/>
<path fill-rule="evenodd" clip-rule="evenodd" d="M115.047 44.3081H119.099V66.2751H115.047V44.3081Z" fill="#76B900"/>
<path fill-rule="evenodd" clip-rule="evenodd" d="M120.52 44.3081H124.573V66.2751H120.52V44.3081Z" fill="#76B900"/>
<path fill-rule="evenodd" clip-rule="evenodd" d="M125.995 44.3081H130.048V66.2751H125.995V44.3081Z" fill="#76B900"/>
<path fill-rule="evenodd" clip-rule="evenodd" d="M131.469 44.3081H135.521V66.2751H131.469V44.3081Z" fill="#76B900"/>
<path fill-rule="evenodd" clip-rule="evenodd" d="M23 7V31.4266H137V7H23ZM22.7726 4H137.227C138.759 4 140 5.24133 140 6.7726V31.654C140 33.1852 138.759 34.4266 137.227 34.4266H22.7726C21.2413 34.4266 20 33.1852 20 31.654V6.7726C20 5.24133 21.2413 4 22.7726 4Z" fill="#76B900"/>
<path d="M30.9838 14.0233C32.1028 14.0233 33.0099 13.1162 33.0099 11.9972C33.0099 10.8783 32.1028 9.97119 30.9838 9.97119C29.8649 9.97119 28.9578 10.8783 28.9578 11.9972C28.9578 13.1162 29.8649 14.0233 30.9838 14.0233Z" fill="#76B900"/>
<path d="M37.9503 14.0233C39.0692 14.0233 39.9763 13.1162 39.9763 11.9972C39.9763 10.8783 39.0692 9.97119 37.9503 9.97119C36.8313 9.97119 35.9242 10.8783 35.9242 11.9972C35.9242 13.1162 36.8313 14.0233 37.9503 14.0233Z" fill="#76B900"/>
<path d="M44.9167 14.0233C46.0356 14.0233 46.9427 13.1162 46.9427 11.9972C46.9427 10.8783 46.0356 9.97119 44.9167 9.97119C43.7977 9.97119 42.8906 10.8783 42.8906 11.9972C42.8906 13.1162 43.7977 14.0233 44.9167 14.0233Z" fill="#76B900"/>
<path fill-rule="evenodd" clip-rule="evenodd" d="M56.6233 33.3257L56.6233 6.93262L59.6233 6.93262L59.6233 33.3257L56.6233 33.3257Z" fill="#76B900"/>
<path fill-rule="evenodd" clip-rule="evenodd" d="M109.573 7.98096H113.625V29.9478H109.573V7.98096Z" fill="#76B900"/>
<path fill-rule="evenodd" clip-rule="evenodd" d="M115.047 7.98096H119.099V29.9478H115.047V7.98096Z" fill="#76B900"/>
<path fill-rule="evenodd" clip-rule="evenodd" d="M120.52 7.98096H124.573V29.9478H120.52V7.98096Z" fill="#76B900"/>
<path fill-rule="evenodd" clip-rule="evenodd" d="M125.995 7.98096H130.048V29.9478H125.995V7.98096Z" fill="#76B900"/>
<path fill-rule="evenodd" clip-rule="evenodd" d="M131.469 7.98096H135.521V29.9478H131.469V7.98096Z" fill="#76B900"/>
</svg>
