<svg width="25" height="24" viewBox="0 0 25 24" fill="none" xmlns="http://www.w3.org/2000/svg">
<g clip-path="url(#clip0_1_2072)">
<mask id="mask0_1_2072" style="mask-type:luminance" maskUnits="userSpaceOnUse" x="0" y="0" width="25" height="24">
<path d="M0.219971 0H24.22V24H0.219971V0Z" fill="white"/>
</mask>
<g mask="url(#mask0_1_2072)">
<path d="M12.22 24C18.847 24 24.22 18.627 24.22 12C24.22 5.373 18.847 0 12.22 0C5.59297 0 0.219971 5.373 0.219971 12C0.219971 18.627 5.59297 24 12.22 24Z" fill="#333333"/>
<path d="M12.22 13.8C12.7715 13.8 13.3177 13.6914 13.8272 13.4803C14.3368 13.2692 14.7998 12.9598 15.1898 12.5698C15.5798 12.1798 15.8892 11.7168 16.1003 11.2073C16.3113 10.6977 16.42 10.1515 16.42 9.59999C16.42 9.04844 16.3113 8.50229 16.1003 7.99272C15.8892 7.48316 15.5798 7.02015 15.1898 6.63015C14.7998 6.24014 14.3368 5.93077 13.8272 5.7197C13.3177 5.50863 12.7715 5.39999 12.22 5.39999C11.106 5.39999 10.0378 5.84249 9.25011 6.63015C8.46246 7.4178 8.01996 8.48608 8.01996 9.59999C8.01996 10.7139 8.46246 11.7822 9.25011 12.5698C10.0378 13.3575 11.106 13.8 12.22 13.8Z" fill="#666666"/>
<path fill-rule="evenodd" clip-rule="evenodd" d="M8.51898 14.132C7.27935 14.8001 6.24372 15.7913 5.52204 17.0005C4.80035 18.2098 4.41952 19.5918 4.41998 21V21.06L4.42098 21.12C6.59224 22.9824 9.35944 24.0042 12.22 24C15.198 24 17.921 22.915 20.019 21.12C20.0187 21.08 20.019 21.04 20.02 21C20.0204 19.5918 19.6396 18.2098 18.9179 17.0005C18.1962 15.7913 17.1606 14.8001 15.921 14.132C14.9204 15.0765 13.596 15.6019 12.22 15.6C10.844 15.6019 9.51958 15.0765 8.51898 14.132Z" fill="#666666"/>
</g>
</g>
<defs>
<clipPath id="clip0_1_2072">
<rect width="24" height="24" fill="white" transform="translate(0.219971)"/>
</clipPath>
</defs>
</svg>
