<svg width="24" height="24" viewBox="0 0 24 24" fill="none" xmlns="http://www.w3.org/2000/svg"><g clip-path="url(#a)"><path d="M23.786 17.367c-.065-.108-.464-.975-2.384-2.757-2.01-1.866-1.74-1.563.681-4.79 1.475-1.965 2.064-3.165 1.88-3.678-.176-.49-1.26-.36-1.26-.36l-3.607.02s-.267-.035-.466.083c-.194.117-.318.387-.318.387s-.572 1.521-1.334 2.814c-1.606 2.73-2.25 2.873-2.512 2.704-.61-.395-.458-1.587-.458-2.433 0-2.645.4-3.748-.781-4.033-.393-.094-.681-.157-1.685-.168-1.287-.013-2.378.005-2.994.306-.411.201-.728.65-.534.675.238.032.778.146 1.065.536.37.502.357 1.633.357 1.633s.213 3.113-.497 3.5c-.487.266-1.155-.276-2.587-2.752-.734-1.268-1.289-2.67-1.289-2.67s-.107-.262-.297-.401a1.495 1.495 0 0 0-.555-.224L.78 5.78s-.514.015-.703.239c-.168.2-.013.61-.013.61s2.685 6.281 5.724 9.448c2.789 2.903 5.954 2.712 5.954 2.712h1.434s.434-.048.654-.286c.204-.22.197-.63.197-.63s-.029-1.925.865-2.209c.88-.278 2.012 1.86 3.21 2.684.906.623 1.595.486 1.595.486l3.206-.045s1.677-.103.882-1.422Z" fill="#DDD"/></g><defs><clipPath id="a"><path fill="#fff" d="M0 0h24v24H0z"/></clipPath></defs></svg>