<svg width="24" height="24" viewBox="0 0 24 24" fill="none" xmlns="http://www.w3.org/2000/svg"><g clip-path="url(#a)"><path d="m23.469 5.929.03.196a3.043 3.043 0 0 0-2.068-2.112l-.021-.005c-1.871-.508-9.4-.508-9.4-.508s-7.51-.01-9.4.508A3.044 3.044 0 0 0 .527 6.104l-.005.021c-.7 3.651-.704 8.038.03 11.947l-.03-.198a3.043 3.043 0 0 0 2.068 2.112l.02.005c1.87.509 9.4.509 9.4.509s7.51 0 9.4-.509a3.043 3.043 0 0 0 2.085-2.096l.005-.021c.318-1.698.5-3.652.5-5.648l-.001-.221v-.23c0-1.997-.181-3.951-.53-5.846ZM9.608 15.651V8.358l6.266 3.652-6.266 3.641Z" fill="#DDD"/></g><defs><clipPath id="a"><path fill="#fff" d="M0 0h24v24H0z"/></clipPath></defs></svg>